<svg width="16" height="16" viewBox="0 0 16 16" fill="none" xmlns="http://www.w3.org/2000/svg">
<path d="M11 6.00003V6.33336H11.3333C11.7754 6.33336 12.1993 6.50895 12.5118 6.82151C12.8244 7.13407 13 7.558 13 8.00003V12.6667C13 13.1087 12.8244 13.5326 12.5118 13.8452C12.1993 14.1578 11.7754 14.3334 11.3333 14.3334H4.66666C4.22463 14.3334 3.80071 14.1578 3.48815 13.8452C3.17558 13.5326 2.99999 13.1087 2.99999 12.6667V8.00003C2.99999 7.558 3.17558 7.13407 3.48815 6.82151C3.80071 6.50895 4.22463 6.33336 4.66666 6.33336H4.99999V6.00003V4.66669C4.99999 3.87104 5.31606 3.10798 5.87867 2.54537C6.44128 1.98276 7.20434 1.66669 7.99999 1.66669C8.79564 1.66669 9.5587 1.98276 10.1213 2.54537C10.6839 3.10798 11 3.87104 11 4.66669V6.00003ZM9.99999 6.33336H10.3333V6.00003V4.66669C10.3333 4.04785 10.0875 3.45436 9.64991 3.01678C9.21232 2.57919 8.61883 2.33336 7.99999 2.33336C7.38115 2.33336 6.78766 2.57919 6.35007 3.01678C5.91249 3.45436 5.66666 4.04785 5.66666 4.66669V6.00003V6.33336H5.99999H9.99999ZM12.0404 13.3738C12.228 13.1863 12.3333 12.9319 12.3333 12.6667V8.00003C12.3333 7.73481 12.228 7.48046 12.0404 7.29292C11.8529 7.10538 11.5985 7.00003 11.3333 7.00003H4.66666C4.40144 7.00003 4.14709 7.10538 3.95955 7.29292C3.77201 7.48046 3.66666 7.73481 3.66666 8.00003V12.6667C3.66666 12.9319 3.77201 13.1863 3.95955 13.3738C4.14709 13.5613 4.40144 13.6667 4.66666 13.6667H11.3333C11.5985 13.6667 11.8529 13.5613 12.0404 13.3738Z" fill="black" stroke="#264653" stroke-width="0.666667"/>
</svg>
